<svg width="30" height="30" viewBox="0 0 30 30" fill="none" xmlns="http://www.w3.org/2000/svg">
<circle cx="15" cy="15" r="14.5" stroke="#AAABBB"/>
<path d="M13.0455 17.5114V17.3182C13.0492 16.6553 13.108 16.1269 13.2216 15.733C13.339 15.339 13.5095 15.0208 13.733 14.7784C13.9564 14.536 14.2254 14.3163 14.5398 14.1193C14.7746 13.9678 14.9848 13.8106 15.1705 13.6477C15.3561 13.4848 15.5038 13.3049 15.6136 13.108C15.7235 12.9072 15.7784 12.6837 15.7784 12.4375C15.7784 12.1761 15.7159 11.947 15.5909 11.75C15.4659 11.553 15.2973 11.4015 15.0852 11.2955C14.8769 11.1894 14.6458 11.1364 14.392 11.1364C14.1458 11.1364 13.9129 11.1913 13.6932 11.3011C13.4735 11.4072 13.2936 11.5663 13.1534 11.7784C13.0133 11.9867 12.9375 12.2462 12.9261 12.5568H10.608C10.6269 11.7992 10.8087 11.1742 11.1534 10.6818C11.4981 10.1856 11.9545 9.81629 12.5227 9.57386C13.0909 9.32765 13.7178 9.20455 14.4034 9.20455C15.1572 9.20455 15.8239 9.32955 16.4034 9.57955C16.983 9.82576 17.4375 10.1837 17.767 10.6534C18.0966 11.1231 18.2614 11.6894 18.2614 12.3523C18.2614 12.7955 18.1875 13.1894 18.0398 13.5341C17.8958 13.875 17.6932 14.178 17.4318 14.4432C17.1705 14.7045 16.8617 14.9413 16.5057 15.1534C16.2064 15.3314 15.9602 15.517 15.767 15.7102C15.5777 15.9034 15.4356 16.1269 15.3409 16.3807C15.25 16.6345 15.2027 16.947 15.1989 17.3182V17.5114H13.0455ZM14.1705 21.1477C13.7917 21.1477 13.4678 21.0152 13.1989 20.75C12.9337 20.4811 12.803 20.1591 12.8068 19.7841C12.803 19.4129 12.9337 19.0947 13.1989 18.8295C13.4678 18.5644 13.7917 18.4318 14.1705 18.4318C14.5303 18.4318 14.8466 18.5644 15.1193 18.8295C15.392 19.0947 15.5303 19.4129 15.5341 19.7841C15.5303 20.0341 15.464 20.2633 15.3352 20.4716C15.2102 20.6761 15.0455 20.8409 14.8409 20.9659C14.6364 21.0871 14.4129 21.1477 14.1705 21.1477Z" fill="#AAABBB"/>
</svg>
