<svg width="31" height="30" viewBox="0 0 31 30" fill="none" xmlns="http://www.w3.org/2000/svg">
<path d="M25 12V6M25 6H18.6667M25 6L16.5556 14M13.3889 8H11.0667C9.29316 8 8.40641 8 7.72903 8.32698C7.13318 8.6146 6.64874 9.07354 6.34515 9.63803C6 10.2798 6 11.1198 6 12.8V19.2C6 20.8802 6 21.7202 6.34515 22.362C6.64874 22.9265 7.13318 23.3854 7.72903 23.673C8.40641 24 9.29316 24 11.0667 24H17.8222C19.5958 24 20.4824 24 21.1599 23.673C21.7557 23.3854 22.2401 22.9265 22.5437 22.362C22.8889 21.7202 22.8889 20.8802 22.8889 19.2V17" stroke="#C6C6C6" stroke-width="2" stroke-linecap="round" stroke-linejoin="round"/>
<rect x="0.5" y="0.5" width="30" height="29" rx="3.5" stroke="#C6C6C6"/>
</svg>
