<svg width="256" height="256" viewBox="0 0 256 256" fill="none" xmlns="http://www.w3.org/2000/svg">
<rect width="256" height="256" rx="50" fill="#25274D"/>
<path d="M117.411 122.081H105.557C104.131 122.081 102.968 123.129 102.968 124.413V138.668C102.968 139.953 104.131 141 105.557 141H105.63C107.056 141 108.219 139.953 108.219 138.668V133.906H114.785L118.007 139.711C118.457 140.521 119.318 141 120.323 141H120.484C121.254 141 121.914 140.668 122.32 140.078C122.724 139.489 122.758 138.808 122.414 138.188L119.809 133.496C122.109 132.682 123.972 130.22 123.976 127.994C123.976 124.73 121.034 122.081 117.411 122.081ZM117.411 129.176H109.532C108.808 129.176 108.219 128.646 108.219 127.994C108.219 127.341 108.808 126.811 109.532 126.811H110.346H115.726H117.411C118.135 126.811 118.723 127.341 118.723 127.994C118.723 128.646 118.135 129.176 117.411 129.176Z" fill="#0070F0"/>
<path d="M188.666 102H176.813C175.386 102 174.223 103.048 174.223 104.332V118.587C174.223 119.871 175.386 120.918 176.813 120.918H176.886C178.312 120.918 179.475 119.871 179.475 118.587V113.824H186.04L189.263 119.63C189.713 120.439 190.574 120.918 191.579 120.918H191.74C192.509 120.918 193.17 120.586 193.575 119.997C193.98 119.407 194.014 118.726 193.67 118.107L191.065 113.414C193.365 112.601 195.227 110.138 195.231 107.912C195.231 104.649 192.29 102 188.666 102ZM188.666 109.095H180.788C180.063 109.095 179.475 108.565 179.475 107.912C179.475 107.26 180.063 106.73 180.788 106.73H181.602H186.981H188.666C189.391 106.73 189.979 107.26 189.979 107.912C189.979 108.565 189.39 109.095 188.666 109.095Z" fill="#0070F0"/>
<path d="M33.6445 127.994C33.6445 131.257 36.5855 133.906 40.2096 133.906H48.0279C48.0352 133.906 48.0455 133.906 48.0525 133.906C48.7143 133.906 49.3129 134.382 49.3934 134.971C49.3972 135.003 49.4003 135.053 49.4003 135.085C49.4003 135.741 48.8124 136.271 48.0839 136.271H48.0805H36.2615C34.8202 136.271 33.6445 137.329 33.6445 138.627V138.643C33.6445 139.942 34.8202 141 36.2615 141H48.0805C51.7043 141 54.6455 138.352 54.6455 135.088C54.6455 131.824 51.7043 129.176 48.0805 129.176H40.2621C40.2549 129.176 40.2445 129.176 40.2376 129.176C39.5758 129.176 38.9771 128.7 38.8964 128.11C38.8932 128.079 38.8894 128.028 38.8894 127.997C38.8894 127.341 39.4777 126.811 40.2059 126.811H40.2096H52.0286C53.4699 126.811 54.6455 125.753 54.6455 124.454V124.438C54.6455 123.14 53.4699 122.081 52.0286 122.081H40.2096C36.5855 122.081 33.6445 124.73 33.6445 127.994Z" fill="#0070F0"/>
<path d="M71.1931 122.081H59.3669C57.9256 122.081 56.75 123.14 56.75 124.438V138.643C56.75 139.942 57.9256 141 59.3669 141H59.3851C60.8265 141 62.0021 139.942 62.0021 138.643V133.906H71.1931C74.817 133.906 77.7579 131.257 77.7579 127.994C77.7579 124.73 74.817 122.081 71.1931 122.081ZM71.1931 129.176H63.315C62.5901 129.176 62.0018 128.646 62.0018 127.994C62.0018 127.341 62.5904 126.811 63.315 126.811H65.4364H69.7639H71.1931C71.9178 126.811 72.5061 127.341 72.5061 127.994C72.5061 128.646 71.9175 129.176 71.1931 129.176Z" fill="#0070F0"/>
<path d="M90.3629 122.081C84.5649 122.081 79.8589 126.319 79.8589 131.541C79.8589 136.762 84.5649 141 90.3629 141C96.1611 141 100.867 136.762 100.867 131.541C100.867 126.319 96.1611 122.081 90.3629 122.081ZM95.615 131.541C95.615 134.152 93.262 136.271 90.3629 136.271C87.4637 136.271 85.1111 134.152 85.1111 131.541C85.1111 128.93 87.4637 126.811 90.3629 126.811C93.262 126.811 95.615 128.93 95.615 131.541Z" fill="#0070F0"/>
<path d="M128.694 126.811H133.954V138.643C133.954 139.942 135.13 141 136.571 141H136.59C138.031 141 139.206 139.942 139.206 138.643V126.811H144.468C145.909 126.811 147.084 125.753 147.084 124.454V124.438C147.084 123.14 145.909 122.081 144.468 122.081H128.694C127.252 122.081 126.076 123.14 126.076 124.438V124.454C126.076 125.753 127.252 126.811 128.694 126.811Z" fill="#0070F0"/>
<path d="M149.125 117.206C149.125 122.428 153.832 126.665 159.63 126.665H167.516C168.958 126.665 170.133 125.607 170.133 124.309V124.292C170.133 122.994 168.958 121.936 167.516 121.936H159.63C156.73 121.936 154.377 119.817 154.377 117.206C154.377 114.595 156.73 112.476 159.63 112.476H167.516C168.958 112.476 170.133 111.418 170.133 110.12V110.103C170.133 108.805 168.958 107.747 167.516 107.747H159.63C153.832 107.747 149.125 111.984 149.125 117.206Z" fill="#0070F0"/>
<path d="M209.81 122.94L205.282 114.783C204.827 113.965 203.957 113.48 202.941 113.48H201.923C200.482 113.48 199.306 114.539 199.306 115.837V130.042C199.306 131.34 200.482 132.399 201.923 132.399H201.941C203.383 132.399 204.558 131.34 204.558 130.042V122.94L206.461 126.367C206.915 127.185 207.786 127.669 208.802 127.669H210.819C211.835 127.669 212.705 127.185 213.159 126.367L215.063 122.94V130.042C215.063 131.34 216.238 132.399 217.679 132.399H217.697C219.139 132.399 220.314 131.34 220.314 130.042V115.837C220.314 114.539 219.139 113.48 217.697 113.48H216.679C215.664 113.48 214.793 113.965 214.339 114.783L209.81 122.94Z" fill="#0070F0"/>
<path fill-rule="evenodd" clip-rule="evenodd" d="M175.358 123.798H194.082C195.833 123.798 197.265 125.088 197.265 126.665V126.665C197.265 128.242 195.833 129.532 194.082 129.532H175.358C173.607 129.532 172.175 128.242 172.175 126.665V126.665C172.175 125.088 173.607 123.798 175.358 123.798Z" fill="#F20008"/>
<path fill-rule="evenodd" clip-rule="evenodd" d="M150.269 129.532H194.082C195.833 129.532 197.265 130.822 197.265 132.399C197.265 133.976 195.833 135.266 194.082 135.266H150.269C148.517 135.266 147.085 133.976 147.085 132.399C147.085 130.822 148.517 129.532 150.269 129.532Z" fill="#FFA70F"/>
<path fill-rule="evenodd" clip-rule="evenodd" d="M150.268 135.266H219.172C220.923 135.266 222.355 136.556 222.355 138.133C222.355 139.71 220.923 141 219.172 141H150.268C148.517 141 147.085 139.71 147.085 138.133C147.085 136.556 148.517 135.266 150.268 135.266Z" fill="#00A64D"/>
<path fill-rule="evenodd" clip-rule="evenodd" d="M194.253 124.754C195.425 124.754 196.375 125.61 196.375 126.665C196.375 127.721 195.425 128.577 194.253 128.577C193.081 128.577 192.13 127.721 192.13 126.665C192.13 125.61 193.081 124.754 194.253 124.754Z" fill="white"/>
</svg>
