<?xml version="1.0" encoding="UTF-8" standalone="no"?>
<!-- Created with Inkscape (http://www.inkscape.org/) -->

<svg
   version="1.1"
   id="svg2"
   xml:space="preserve"
   width="341.33334"
   height="80"
   viewBox="0 0 341.33334 80"
   sodipodi:docname="sportcrm_logo_rgb.eps"
   xmlns:inkscape="http://www.inkscape.org/namespaces/inkscape"
   xmlns:sodipodi="http://sodipodi.sourceforge.net/DTD/sodipodi-0.dtd"
   xmlns="http://www.w3.org/2000/svg"
   xmlns:svg="http://www.w3.org/2000/svg"><defs
     id="defs6" /><sodipodi:namedview
     id="namedview4"
     pagecolor="#ffffff"
     bordercolor="#666666"
     borderopacity="1.0"
     inkscape:pageshadow="2"
     inkscape:pageopacity="0.0"
     inkscape:pagecheckerboard="0" /><g
     id="g8"
     inkscape:groupmode="layer"
     inkscape:label="ink_ext_XXXXXX"
     transform="matrix(1.3333333,0,0,-1.3333333,0,80)"><g
       id="g10"
       transform="scale(0.1)"><path
         d="m 1136.23,288.641 h -160.5 c -19.308,0 -35.058,-15.75 -35.058,-35.059 V 39.2578 c 0,-19.3125 15.75,-35.06249 35.058,-35.06249 h 0.993 c 19.312,0 35.057,15.74999 35.057,35.06249 v 71.6052 h 88.9 l 43.63,-87.2888 c 6.09,-12.1719 17.75,-19.37889 31.36,-19.37889 h 2.17 c 10.43,0 19.37,4.99219 24.86,13.85939 5.47,8.8633 5.93,19.1055 1.27,28.4258 l -35.27,70.5465 c 31.15,12.231 56.37,49.25 56.42,82.719 0,49.07 -39.83,88.895 -88.89,88.895 z m 0,-106.668 h -106.68 c -9.8,0 -17.77,7.968 -17.77,17.773 0,9.817 7.97,17.785 17.77,17.785 h 11.03 72.84 22.81 c 9.81,0 17.77,-7.968 17.77,-17.785 0,-9.805 -7.96,-17.773 -17.77,-17.773"
         style="fill:#0070f0;fill-opacity:1;fill-rule:nonzero;stroke:none"
         id="path12" /><path
         d="m 2101.02,590.566 h -160.49 c -19.32,0 -35.06,-15.75 -35.06,-35.058 V 341.184 c 0,-19.309 15.74,-35.059 35.06,-35.059 h 0.99 c 19.31,0 35.06,15.75 35.06,35.059 v 71.605 h 88.89 l 43.64,-87.289 c 6.09,-12.172 17.75,-19.375 31.35,-19.375 h 2.18 c 10.42,0 19.37,4.992 24.85,13.855 5.48,8.864 5.94,19.106 1.28,28.422 l -35.27,70.551 c 31.14,12.231 56.36,49.254 56.41,82.723 0,49.066 -39.82,88.89 -88.89,88.89 z m 0,-106.668 h -106.67 c -9.81,0 -17.78,7.969 -17.78,17.778 0,9.812 7.97,17.781 17.78,17.781 h 11.02 72.84 22.81 c 9.82,0 17.78,-7.969 17.78,-17.781 0,-9.809 -7.97,-17.778 -17.78,-17.778"
         style="fill:#0070f0;fill-opacity:1;fill-rule:nonzero;stroke:none"
         id="path14" /><path
         d="m 2.04688,199.75 c 0,-49.066 39.82032,-88.887 88.89062,-88.887 H 196.797 c 0.098,0 0.238,0 0.332,0 8.961,0 17.066,-7.16 18.156,-16.0232 0.051,-0.4765 0.094,-1.2343 0.094,-1.707 0,-9.8633 -7.961,-17.8281 -17.824,-17.8281 H 197.508 37.4805 C 17.9648,75.3047 2.04688,59.3867 2.04688,39.8711 V 39.6289 C 2.04688,20.1094 17.9648,4.19531 37.4805,4.19531 H 197.508 c 49.066,0 88.89,39.82029 88.89,88.88669 0,49.07 -39.824,88.891 -88.89,88.891 H 91.6484 c -0.0976,0 -0.2382,0 -0.332,0 -8.9609,0 -17.0664,7.156 -18.1601,16.023 -0.043,0.473 -0.0938,1.234 -0.0938,1.707 0,9.863 7.9648,17.824 17.8242,17.824 h 0.0508 160.0275 c 19.515,0 35.433,15.914 35.433,35.434 v 0.246 c 0,19.516 -15.918,35.434 -35.433,35.434 H 90.9375 c -49.0703,0 -88.89062,-39.825 -88.89062,-88.891"
         style="fill:#0070f0;fill-opacity:1;fill-rule:nonzero;stroke:none"
         id="path16" /><path
         d="M 510.449,288.641 H 350.324 c -19.515,0 -35.433,-15.918 -35.433,-35.434 V 39.6289 c 0,-19.5195 15.918,-35.43359 35.433,-35.43359 h 0.246 c 19.516,0 35.434,15.91409 35.434,35.43359 v 71.2341 h 124.445 c 49.067,0 88.887,39.821 88.887,88.887 0,49.066 -39.82,88.891 -88.887,88.891 z m 0,-106.668 H 403.781 c -9.816,0 -17.781,7.965 -17.781,17.777 0,9.816 7.969,17.777 17.781,17.777 h 28.723 58.594 19.351 c 9.813,0 17.778,-7.961 17.778,-17.777 0,-9.812 -7.969,-17.777 -17.778,-17.777"
         style="fill:#0070f0;fill-opacity:1;fill-rule:nonzero;stroke:none"
         id="path18" /><path
         d="m 770.004,288.641 c -78.504,0 -142.223,-63.719 -142.223,-142.223 0,-78.5078 63.719,-142.22269 142.223,-142.22269 78.508,0 142.223,63.71489 142.223,142.22269 0,78.504 -63.715,142.223 -142.223,142.223 z m 71.113,-142.223 c 0,-39.254 -31.859,-71.1133 -71.113,-71.1133 -39.254,0 -71.109,31.8593 -71.109,71.1133 0,39.254 31.855,71.109 71.109,71.109 39.254,0 71.113,-31.855 71.113,-71.109"
         style="fill:#0070f0;fill-opacity:1;fill-rule:nonzero;stroke:none"
         id="path20" /><path
         d="m 1289,217.527 h 71.23 V 39.6289 c 0,-19.5195 15.92,-35.43359 35.43,-35.43359 h 0.25 c 19.52,0 35.43,15.91409 35.43,35.43359 V 217.527 h 71.24 c 19.51,0 35.43,15.914 35.43,35.434 v 0.246 c 0,19.516 -15.92,35.434 -35.43,35.434 H 1289 c -19.52,0 -35.44,-15.918 -35.44,-35.434 v -0.246 c 0,-19.52 15.92,-35.434 35.44,-35.434"
         style="fill:#0070f0;fill-opacity:1;fill-rule:nonzero;stroke:none"
         id="path22" /><path
         d="m 1565.65,361.945 c 0,-78.511 63.72,-142.222 142.23,-142.222 h 106.78 c 19.52,0 35.43,15.914 35.43,35.429 v 0.246 c 0,19.516 -15.91,35.434 -35.43,35.434 h -106.78 c -39.26,0 -71.12,31.859 -71.12,71.113 0,39.25 31.86,71.11 71.12,71.11 h 106.78 c 19.52,0 35.43,15.914 35.43,35.433 v 0.242 c 0,19.516 -15.91,35.434 -35.43,35.434 h -106.78 c -78.51,0 -142.23,-63.715 -142.23,-142.219"
         style="fill:#0070f0;fill-opacity:1;fill-rule:nonzero;stroke:none"
         id="path24" /><path
         d="M 2387.31,275.738 2326,398.367 c -6.16,12.305 -17.94,19.59 -31.7,19.59 h -13.78 c -19.51,0 -35.43,-15.918 -35.43,-35.434 V 168.945 c 0,-19.515 15.92,-35.429 35.43,-35.429 h 0.25 c 19.52,0 35.43,15.914 35.43,35.429 v 106.793 l 25.76,-51.527 c 6.15,-12.305 17.94,-19.586 31.7,-19.586 h 27.31 c 13.76,0 25.54,7.281 31.69,19.586 l 25.77,51.527 V 168.945 c 0,-19.515 15.91,-35.429 35.43,-35.429 h 0.24 c 19.52,0 35.44,15.914 35.44,35.429 v 213.578 c 0,19.516 -15.92,35.434 -35.44,35.434 h -13.78 c -13.75,0 -25.54,-7.285 -31.69,-19.59 l -61.32,-122.629"
         style="fill:#0070f0;fill-opacity:1;fill-rule:nonzero;stroke:none"
         id="path26" /><path
         d="m 1920.84,262.824 h 253.51 c 23.71,0 43.1,-19.394 43.1,-43.101 v -0.004 c 0,-23.711 -19.39,-43.106 -43.1,-43.106 h -253.51 c -23.71,0 -43.11,19.395 -43.11,43.106 v 0.004 c 0,23.707 19.4,43.101 43.11,43.101"
         style="fill:#f20008;fill-opacity:1;fill-rule:evenodd;stroke:none"
         id="path28" /><path
         d="m 1581.13,176.613 h 593.22 c 23.71,0 43.1,-19.39 43.1,-43.097 v 0 c 0,-23.715 -19.39,-43.1097 -43.1,-43.1097 h -593.22 c -23.72,0 -43.11,19.3947 -43.11,43.1097 v 0 c 0,23.707 19.39,43.097 43.11,43.097"
         style="fill:#ffa70f;fill-opacity:1;fill-rule:evenodd;stroke:none"
         id="path30" /><path
         d="m 1581.12,90.4063 h 932.95 c 23.71,0 43.1,-19.3907 43.1,-43.1016 v 0 c 0,-23.7109 -19.39,-43.10548 -43.1,-43.10548 h -932.95 c -23.71,0 -43.1,19.39458 -43.1,43.10548 v 0 c 0,23.7109 19.39,43.1016 43.1,43.1016"
         style="fill:#00a64d;fill-opacity:1;fill-rule:evenodd;stroke:none"
         id="path32" /><path
         d="m 2176.67,248.457 c 15.87,0 28.73,-12.867 28.73,-28.734 0,-15.871 -12.86,-28.739 -28.73,-28.739 -15.87,0 -28.74,12.868 -28.74,28.739 0,15.867 12.87,28.734 28.74,28.734"
         style="fill:#ffffff;fill-opacity:1;fill-rule:evenodd;stroke:none"
         id="path34" /></g></g></svg>
